<?xml version="1.0" encoding="UTF-8" standalone="no"?>
<svg width="182px" height="242px" viewBox="0 0 182 242" version="1.1" xmlns="http://www.w3.org/2000/svg" xmlns:xlink="http://www.w3.org/1999/xlink">
    <!-- Generator: Sketch 41.2 (35397) - http://www.bohemiancoding.com/sketch -->
    <title>signup</title>
    <desc>Created with Sketch.</desc>
    <defs></defs>
    <g id="Page-1" stroke="none" stroke-width="1" fill="none" fill-rule="evenodd">
        <g id="signup" transform="translate(-4.000000, -9.000000)" fill="#363636">
            <path d="M18.1326117,74.6427833 C17.4010633,74.2488727 16.5569817,74.0519203 15.6003415,74.0519203 C15.037612,74.0519203 14.6577753,73.9393761 14.46082,73.7142843 C14.2638646,73.4891925 14.1372524,73.0952877 14.0809794,72.5325582 C14.0809794,71.8572828 13.9684352,71.1679495 13.7433434,70.4645376 C13.5182516,69.7611257 13.3775713,69.3250169 13.3212984,69.156198 C12.7022959,66.9615529 12.3927993,64.8232128 12.3927993,62.7411136 C12.3927993,61.221744 12.5616157,59.7586692 12.8992534,58.3518454 C13.1243452,57.1701134 13.2650254,56.2134876 13.3212984,55.4819392 C13.3212984,54.6378449 13.7152031,54.2158041 14.5030245,54.2158041 C15.8535753,53.9907123 16.8664732,53.8500321 17.5417486,53.7937591 L17.7949757,53.7937591 C18.8641617,53.7937591 19.3143386,54.3283441 19.1455197,55.3975302 C18.9204279,57.0857187 18.7516116,58.802018 18.6390657,60.5464795 C18.6390657,60.9403902 18.6109297,61.5171793 18.5546567,62.2768641 C18.4983838,63.036549 18.4421116,63.6696102 18.3858387,64.1760667 C18.3295657,64.7387962 18.3717698,65.3859255 18.5124522,66.1174738 C18.6531346,66.8490222 18.8078829,67.5242875 18.9767017,68.14329 C19.0329747,68.3683818 19.1173828,68.480926 19.2299287,68.480926 C19.3424746,68.480926 19.4550189,68.3965178 19.5675648,68.227699 C19.6801107,67.9463342 19.8067229,67.6649737 19.9474053,67.3836089 L20.3272458,66.6239279 C20.5523376,66.1174713 20.9743784,65.1467775 21.5933809,63.7118172 C22.2123834,62.2768569 22.7329003,60.9544624 23.1549475,59.744594 C23.5769946,58.5347255 23.9005592,57.3670793 24.125651,56.2416203 C24.2381969,55.5663448 24.294469,55.0598959 24.294469,54.7222582 C24.294469,54.1595286 24.2100609,53.6812157 24.041242,53.2873051 C23.8161502,52.7808485 23.6473339,52.2743995 23.534788,51.767943 C23.3659691,50.4173921 22.6344318,49.4326303 21.3401539,48.8136278 C20.2709678,48.3071712 19.3565461,47.7022461 18.5968612,46.9988342 C17.8371764,46.2954223 16.7539383,45.1559121 15.3471145,43.5802695 C14.728112,42.8487211 14.3060712,41.9905715 14.0809794,41.0057948 C13.8558876,40.0210182 13.6870713,38.7689638 13.5745254,37.2495941 C13.2931607,32.5789392 14.6155552,27.7114019 17.5417486,22.6468362 C18.1607511,21.5776502 18.9766967,21.0430651 19.9896098,21.0430651 C20.3272475,21.0430651 20.580472,21.0712012 20.7492908,21.1274742 C20.9181097,21.1837471 21.1431981,21.2118832 21.4245629,21.2118832 C21.6496547,21.2118832 21.9450832,21.1837471 22.3108574,21.1274742 C22.6766316,21.0712012 22.9720602,21.0712012 23.197152,21.1274742 C24.6039758,21.1274742 25.8138261,21.6620592 26.8267392,22.7312452 C27.8396523,23.8567043 28.5289856,25.1228267 28.8947598,26.5296505 C29.260534,27.9364743 29.4715544,29.5683654 29.5278274,31.4253728 C29.5278274,32.8884695 29.3027389,35.0268096 28.8525553,37.8404572 C28.6274635,39.0221891 28.4867832,39.8381347 28.4305103,40.2883183 C28.3742373,40.9073208 27.9521965,41.2168174 27.1643752,41.2168174 C26.3765539,41.1605444 25.6590845,40.949524 25.0119456,40.5837498 C24.3648067,40.2179756 23.6754733,39.6974586 22.943925,39.0221832 C22.7751061,38.8533644 22.690698,38.6001399 22.690698,38.2625022 C22.690698,37.9811374 22.7469701,37.6153687 22.859516,37.1651851 C23.1971537,36.0397261 23.36597,34.6047873 23.36597,32.8603259 C23.4785159,31.1158644 23.6473322,29.8216059 23.872424,28.9775116 L23.872424,28.7242846 C23.872424,28.4429199 23.8161519,28.1896954 23.703606,27.9646036 C23.6473331,27.8520577 23.5769929,27.6410373 23.4925835,27.331536 C23.4081741,27.0220348 23.2534258,26.8672865 23.028334,26.8672865 C22.7469692,26.9235594 22.5218808,27.2893281 22.3530619,27.9646036 C22.240516,28.4710601 21.9450875,29.6668424 21.4667674,31.5519863 C20.9884473,33.4371301 20.6648827,35.2519056 20.4960638,36.9963671 C20.4397909,37.3340048 20.3694507,37.7419776 20.2850413,38.2202977 C20.2006319,38.6986178 20.1584278,39.1065905 20.1584278,39.4442282 C20.1584278,39.8381389 20.1865639,40.1194994 20.2428368,40.2883183 C20.6930204,41.9202339 21.5652381,43.0738121 22.859516,43.7490875 C23.2534266,43.9741793 23.9286919,44.339948 24.8853321,44.8464046 C25.8419723,45.3528611 26.7141899,45.7186298 27.5020112,45.9437216 C30.2593859,46.7878159 31.8350049,48.8136118 32.2289155,52.02117 C32.3414614,53.3717208 32.3977335,54.3564827 32.3977335,54.9754852 C32.3977335,58.0704975 31.7506043,61.1373273 30.4563264,64.1760667 C29.3308674,66.8208954 28.59933,69.0999158 28.2616923,71.0131961 C28.0928734,71.9135634 27.7693088,72.6591688 27.2909887,73.2500348 C26.8126686,73.8409008 26.1233353,74.473962 25.2229681,75.1492374 C24.9978763,75.3743292 24.5476994,75.4868734 23.872424,75.4868734 C22.0154166,75.6556923 20.102165,75.3743317 18.1326117,74.6427833 Z M43.7507447,29.4417611 C42.6534222,29.2448058 41.6545923,28.9212412 40.754225,28.4710576 C39.7975849,28.020874 39.2629998,27.2330645 39.1504539,26.1076055 L39.1504539,24.0817893 C39.1504539,21.9434172 39.4318145,19.9457574 39.994544,18.08875 C40.1633628,17.5260205 40.3462472,17.1743198 40.5432025,17.0336374 C40.7401578,16.892955 41.1481306,16.8226149 41.7671331,16.8226149 C42.9488651,16.8226149 43.8210827,17.1039754 44.3838122,17.6667049 C44.4963582,17.7792508 44.6651745,17.8917951 44.8902663,18.004341 C46.5221819,18.7358893 47.3381274,20.142692 47.3381274,22.2247912 C47.3381274,22.8437937 47.2818553,23.7722835 47.1693094,25.0102884 C47.0004906,26.4171122 46.9442185,27.6832346 47.0004914,28.8086936 L47.0004914,29.0619206 C47.0004914,29.8497419 46.6065867,30.1029664 45.8187653,29.8216017 C45.5374006,29.7653287 44.8480673,29.6387165 43.7507447,29.4417611 Z M40.838634,75.7401004 L39.0660449,75.7401004 C37.0964916,75.7401004 36.0273216,74.7834746 35.8585027,72.8701942 C35.8022298,72.5888295 35.7740937,72.1386526 35.7740937,71.5196502 C35.7740937,70.8443747 35.8303658,69.8877489 35.9429117,68.649744 C36.1680036,66.5676448 36.3649559,64.9076176 36.5337748,63.6696127 C36.5900477,63.1631561 36.6744559,62.5019589 36.7870018,61.6860011 C36.8995477,60.8700433 36.9839559,59.8993494 37.0402288,58.7738904 C37.0965018,57.8735232 37.1246378,56.4948566 37.1246378,54.6378492 C37.1809108,54.0188467 37.2090468,53.0903569 37.2090468,51.852352 L37.3778648,48.5604008 C37.4904107,44.902659 37.7717713,41.9202373 38.2219549,39.6130463 C38.3907737,38.9940438 38.5033179,38.2343703 38.5595909,37.3340031 C38.6158639,36.4336359 38.672136,35.7302346 38.7284089,35.223778 C38.7846819,34.7173214 38.9253621,34.3796888 39.1504539,34.2108699 C39.3755457,34.0420511 39.7694505,33.9576429 40.33218,33.9576429 C41.1762743,33.9576429 42.2032402,34.2812075 43.4131087,34.9283465 C44.6229771,35.5754854 45.4248547,36.2648187 45.8187653,36.9963671 C46.1001301,37.6716425 46.2408104,38.2624996 46.2408104,38.7689562 C46.2408104,40.2320529 46.3814906,41.8639441 46.6628554,43.6646785 C46.7191283,44.0585892 46.7472644,44.7057184 46.7472644,45.6060856 C46.5784455,46.6752717 46.4940374,47.8288499 46.4940374,49.0668548 L46.5784464,53.3717141 L46.4940374,55.3131212 C46.3814915,56.2134884 46.3252194,56.8606177 46.3252194,57.2545283 C46.3814923,58.0423496 46.4096284,59.2240639 46.4096284,60.7997065 C46.4096284,62.7692598 46.3533563,64.2323346 46.2408104,65.1889748 C46.0719915,67.214801 45.9313112,70.2534948 45.8187653,74.3051473 C45.8187653,74.7553309 45.7343572,75.0929636 45.5655383,75.3180554 C45.3967195,75.5431472 45.0872229,75.6838275 44.6370393,75.7401004 C43.9617638,75.8526463 43.4271788,75.8807824 43.0332682,75.8245094 C42.4142657,75.7682365 41.6827283,75.7401004 40.838634,75.7401004 Z M55.1881649,70.2535151 C52.8809739,67.6086864 51.4741712,64.4574484 50.9677146,60.7997065 C50.7988958,59.5054286 50.7144876,58.2393062 50.7144876,57.0013013 C50.7144876,55.6507505 50.7988958,54.1454716 50.9677146,52.4854195 C51.1365335,50.8253675 51.2490777,49.7421294 51.3053507,49.2356728 L51.5585777,45.7749036 C51.6711236,43.7490774 51.7836678,42.2297305 51.8962137,41.2168174 C52.0087596,40.485269 52.1072358,39.6130513 52.1916452,38.6001382 C52.2760546,37.5872251 52.3463948,36.7994156 52.4026677,36.2366861 C52.6277595,33.1979467 52.9091201,30.9189263 53.2467578,29.3995566 C53.6406684,27.4862763 54.1189814,25.8121811 54.6817109,24.3772208 C55.2444404,22.9422606 56.0322499,21.6339341 57.045163,20.4522021 L59.5774332,17.1602509 C60.5340733,15.9785189 61.6595155,15.3876618 62.9537934,15.3876618 C63.5727958,15.3876618 64.2480611,15.5283421 64.9796095,15.8097068 C65.4297931,15.9785257 65.9362421,16.1754781 66.4989716,16.4005699 C67.0617011,16.6256617 67.7088303,16.8507501 68.4403787,17.0758419 C70.409932,17.8073903 71.5072381,19.1579209 71.7323299,21.1274742 C71.7886028,21.5213848 71.8167389,22.140378 71.8167389,22.9844723 C71.8167389,24.2224772 71.6760586,25.2916472 71.3946939,26.1920145 C71.225875,26.754744 71.0148546,27.1486487 70.7616263,27.3737405 C70.508398,27.5988323 70.1004253,27.7113765 69.5376958,27.7113765 C67.0054129,27.7113765 65.0921613,26.8391589 63.7978834,25.0946974 C63.6290646,24.8133326 63.4602482,24.8133326 63.2914294,25.0946974 C63.2914294,25.2635162 63.2632933,25.3760605 63.2070204,25.4323334 C62.475472,27.8520703 62.0534312,29.9341383 61.9408853,31.6785998 C61.9408853,32.2976022 61.8564771,33.0010036 61.6876583,33.7888249 C61.0686558,37.3340208 60.7872953,40.2883065 60.8435682,42.6517704 C60.8435682,43.101954 60.8013642,43.6365391 60.7169547,44.2555415 C60.6325453,44.874544 60.5903412,45.3247209 60.5903412,45.6060856 C60.3652494,46.9566364 60.2527052,47.9695344 60.2527052,48.6448098 C60.3089781,49.8828147 60.2808421,51.6272501 60.1682962,53.8781681 L60.0838872,57.8453913 C60.0838872,60.3776742 60.2527035,62.5441503 60.5903412,64.3448847 C60.9279789,66.1456192 61.7157884,67.7775103 62.9537934,69.240607 C63.0663393,69.3531529 63.2351556,69.5641733 63.4602474,69.8736746 C63.6853392,70.1831758 63.9385637,70.3379241 64.2199284,70.3379241 C64.6138391,70.3379241 64.8951996,70.2113119 65.0640185,69.9580836 C65.2328373,69.7048553 65.4016537,69.2968825 65.5704725,68.734153 C65.9081102,67.7212399 66.0909946,66.5535936 66.119131,65.2311793 C66.1472675,63.9087649 66.1613355,62.9943432 66.1613355,62.4878866 L66.1613355,59.8712075 C66.1613355,59.1959321 66.0628594,58.7738912 65.865904,58.6050724 C65.6689487,58.4362535 65.2609759,58.3518454 64.6419735,58.3518454 L64.1355194,58.3518454 C63.516517,58.2955724 63.024136,58.070484 62.6583618,57.6765733 C62.2925877,57.2826627 62.1378394,56.7762137 62.1941123,56.1572112 C62.3066582,55.5944817 62.3629303,55.1443049 62.3629303,54.8066672 L62.2785213,53.8781681 C62.1659754,53.4279845 62.3629278,52.8933995 62.8693844,52.274397 C63.3758409,51.6553945 63.8541538,51.345898 64.3043374,51.345898 C65.1484317,51.4021709 66.0487854,51.3458988 67.0054256,51.1770799 C67.9620658,51.0082611 68.5529229,50.8957169 68.7780147,50.8394439 C69.0031065,50.783171 69.3126031,50.7550349 69.7065138,50.7550349 C70.1004244,50.7550349 70.4380571,50.8535111 70.7194218,51.0504664 C71.0007866,51.2474218 71.3102832,51.6272585 71.6479209,52.189988 C71.9855586,52.8652634 72.2669191,53.3717124 72.4920109,53.7093501 C72.7733757,54.1595337 72.914056,54.6097106 72.914056,55.0598942 C72.914056,55.5663507 72.7171036,56.0446637 72.3231929,56.4948473 C72.0981011,56.776212 71.9855569,57.1138447 71.9855569,57.5077553 C71.9855569,57.7891201 72.041829,58.1126847 72.1543749,58.4784589 C72.2669208,58.8442331 72.351329,59.1115256 72.4076019,59.2803444 C72.4638749,59.5054362 72.6326912,60.2932457 72.914056,61.6437966 C73.1954207,62.9943474 73.336101,64.3167419 73.336101,65.6110198 C73.336101,66.7927518 73.1391486,68.1714184 72.7452379,69.7470611 C72.3513273,71.4915225 71.141477,72.6451007 69.1156507,73.2078303 C67.4274622,73.6580139 65.8237071,73.8831023 64.3043374,73.8831023 C62.7286948,73.8831023 61.26562,73.6580139 59.9150692,73.2078303 C57.9455159,72.4762819 56.3698969,71.49152 55.1881649,70.2535151 Z M96.6329864,77.9347345 C96.1828028,77.9347345 95.8170341,77.7940543 95.5356693,77.5126895 C95.0854857,77.2875977 94.6071728,77.1750535 94.1007162,77.1750535 L93.7630802,77.1750535 C93.3128966,77.1750535 92.9611959,77.0625093 92.7079676,76.8374175 C92.4547394,76.6123257 92.2155829,76.2184209 91.9904911,75.6556914 L91.3152191,73.4610573 C91.1464002,72.8420548 90.9213118,72.1386535 90.639947,71.3508322 C89.7958527,69.21246 89.0502473,67.0178478 88.4031084,64.7669298 C87.7559694,62.5160117 87.010364,59.7586784 86.1662697,56.4948473 C86.1662697,55.9321178 86.0537255,55.6507572 85.8286337,55.6507572 C85.7723608,55.6507572 85.7160887,55.7773695 85.6598157,56.0305977 C85.6035428,56.283826 85.5754067,56.4667104 85.5754067,56.5792563 L85.3221797,59.0271174 C84.984542,63.4164076 84.8438617,66.6801898 84.9001347,68.818562 C84.9001347,69.3250186 84.9142027,70.09876 84.9423392,71.1398096 C84.9704756,72.1808592 85.0689518,73.095281 85.2377707,73.8831023 L85.2377707,74.8960104 C84.7875871,75.8526505 84.0841857,76.6685961 83.1275456,77.3438715 C82.8461808,77.5689633 82.5085482,77.6815075 82.1146375,77.6815075 C81.7207268,77.6815075 81.298686,77.5408273 80.8485024,77.2594625 C80.1169541,76.8092789 79.3854167,76.6123265 78.6538683,76.6685995 C77.9785929,76.6685995 77.528416,76.2184226 77.3033242,75.3180554 C77.1907783,74.7553259 77.0782341,73.7987001 76.9656882,72.4481492 L76.7124612,65.2733838 C76.7124612,60.2650911 76.7968693,56.6355402 76.9656882,54.3846221 C77.0219611,53.427982 77.0360292,52.5979684 77.0078927,51.8945565 C76.9797562,51.1911446 76.9656882,50.5862194 76.9656882,50.0797629 C76.9656882,47.603753 77.1907766,44.0023382 77.6409602,39.2754102 L77.8097782,37.5872301 C78.2036889,34.323399 78.4006413,31.5097936 78.4006413,29.1463296 C78.5131872,27.2893222 78.7664117,25.5167509 79.1603223,23.8285623 C79.3854141,23.1532869 79.7230468,22.6187019 80.1732304,22.2247912 C80.623414,21.8308806 81.1017269,21.6339282 81.6081835,21.6339282 C82.2271859,21.6339282 82.789907,21.8871527 83.2963636,22.3936092 L84.8157257,23.8285623 C85.0408175,24.0536541 85.2377698,24.3350147 85.4065887,24.6726524 C85.6316805,25.122836 85.9411771,25.7558972 86.3350878,26.571855 C86.7289984,27.3878128 87.010359,28.1052821 87.1791778,28.7242846 C87.3479967,29.2307412 87.4746089,29.8215983 87.5590183,30.4968737 C87.6434278,31.1721491 87.7137679,31.650462 87.7700408,31.9318268 C87.9388597,32.9447399 88.3046284,34.4078147 88.8673579,36.3210951 L89.627039,38.9377742 C89.8521308,39.8381414 89.992811,40.5415428 90.049084,41.0479993 C90.3304487,42.3422772 90.6118093,43.3833112 90.893174,44.1711325 C91.2308117,45.2965916 91.4840362,46.4220337 91.6528551,47.5474927 C91.8216739,49.1794083 92.1593066,50.8957076 92.6657631,52.696442 C93.1722197,54.4971765 93.4817163,55.5944826 93.5942622,55.9883932 L94.0163072,57.6765733 C94.0163072,58.1267569 94.1007154,58.3518454 94.2695342,58.3518454 C94.3820801,58.2955724 94.4383522,58.0423479 94.4383522,57.5921643 C94.4946252,57.1419807 94.5227612,56.4667154 94.5227612,55.5663482 C94.5227612,54.8910728 94.4946252,54.3846238 94.4383522,54.0469861 C94.3258063,52.9215271 94.2695342,52.0774455 94.2695342,51.514716 C94.2695342,50.2204381 94.4102145,48.8136354 94.6915793,47.2942657 C94.972944,45.3247124 95.1136243,43.552141 95.1136243,41.9764984 C95.1698972,40.9073123 95.1839653,39.9928906 95.1558288,39.2332057 C95.1276923,38.4735209 95.1136243,37.8685957 95.1136243,37.4184121 L95.1136243,35.308187 C95.1136243,32.944723 95.2261685,30.7501109 95.4512603,28.7242846 C95.5638062,27.5988256 95.6200783,26.754744 95.6200783,26.1920145 C95.6200783,25.6855579 95.5919423,25.2916531 95.5356693,25.0102884 C95.5356693,24.5038318 95.5919414,23.7441584 95.7044873,22.7312452 C95.7044873,22.6186993 95.7466914,22.4076789 95.8311008,22.0981777 C95.9155102,21.7886765 95.9295783,21.4932479 95.8733053,21.2118832 C95.8733053,20.5928807 96.0702577,20.255248 96.4641684,20.1989751 C97.7021733,19.9176103 98.7432073,19.7769301 99.5873015,19.7769301 C100.150031,19.7769301 100.529868,19.8894743 100.726823,20.1145661 C100.923778,20.3396579 101.050391,20.7616987 101.106664,21.3807012 C101.275482,23.2939815 101.359891,25.1790971 101.359891,27.0361045 C101.359891,28.3866553 101.331755,29.3995533 101.275482,30.0748287 C101.219209,30.6375582 101.191073,31.4816398 101.191073,32.6070988 C101.191073,33.6762849 101.247345,35.1674958 101.359891,37.0807761 C101.472437,39.8944237 101.500573,42.0608998 101.4443,43.5802695 C101.388027,44.4243638 101.373959,45.1840372 101.402095,45.8593126 C101.430232,46.534588 101.4443,47.0973091 101.4443,47.5474927 L101.4443,49.5733089 C101.388027,51.0926785 101.373959,52.372869 101.402095,53.4139186 C101.430232,54.4549682 101.4443,55.3412539 101.4443,56.0728022 C101.500573,57.2545342 101.528709,59.3647382 101.528709,62.4034776 C101.528709,65.2733981 101.359892,68.1151396 101.022255,70.9287871 C100.797163,72.8420675 100.712755,74.3051423 100.769028,75.3180554 C100.769028,77.0625169 100.065626,77.8503264 98.6588025,77.6815075 C98.2086189,77.6815075 97.8428502,77.7096436 97.5614854,77.7659165 C97.1113018,77.8784624 96.8018052,77.9347345 96.6329864,77.9347345 Z M136.811673,71.9416952 C136.642854,71.7728763 136.277085,71.6321961 135.714356,71.5196502 C134.194986,71.2382854 132.928864,70.6192922 131.91595,69.6626521 C130.903037,68.7060119 129.974548,67.4680255 129.130453,65.9486558 C128.342632,64.4292861 127.779911,62.8536671 127.442273,61.2217515 C127.104636,59.589836 126.823275,57.7328564 126.598183,55.6507572 C126.204272,52.443199 126.00732,49.0106004 126.00732,45.3528586 C126.00732,43.0456676 126.091728,40.7666472 126.260547,38.5157292 C126.541912,33.6762554 126.992089,28.9775344 127.611091,24.4194253 C127.723637,24.0255147 127.836181,23.3221133 127.948727,22.3092002 L128.201954,20.2833841 C128.3145,19.6081087 128.623997,19.0735237 129.130453,18.679613 C129.63691,18.2857023 130.199631,18.08875 130.818633,18.08875 C131.32509,18.08875 131.803403,18.2012942 132.253586,18.426386 L133.68854,19.186067 C134.982817,19.8613425 135.953511,20.677288 136.60065,21.6339282 C137.247789,22.5905684 137.683898,23.8285547 137.90899,25.3479244 C138.190355,27.0923859 138.359171,28.9352974 138.415444,30.8767142 C138.471717,32.8181311 138.499853,34.0139133 138.499853,34.4640969 C138.499853,36.0960125 138.527989,37.3339989 138.584262,38.1780932 C138.471716,39.1347333 138.415444,40.5978081 138.415444,42.5673614 C138.415444,44.8182795 138.499852,47.0972998 138.668671,49.4044908 C138.781217,51.7679548 138.837489,53.5123901 138.837489,54.6378492 C138.837489,55.1443057 138.851557,56.1149996 138.879693,57.5499598 C138.90783,58.9849201 138.992238,60.3073146 139.13292,61.5171831 C139.273603,62.7270515 139.484623,63.8384256 139.765988,64.8513388 L139.850397,65.2733838 C139.850397,65.6672944 139.962941,65.8923829 140.188033,65.9486558 C140.356852,66.0049288 140.483464,65.9627247 140.567873,65.8220423 C140.652283,65.6813599 140.694487,65.5828838 140.694487,65.5266108 C141.538581,64.2323329 141.988758,62.9662105 142.045031,61.7282056 C142.21385,59.8711982 142.481142,57.8735384 142.846917,55.7351662 C143.212691,53.5967941 143.451847,52.2743995 143.564393,51.767943 C143.733212,50.642484 143.81762,49.60145 143.81762,48.6448098 C143.81762,47.9695344 143.761348,47.0129086 143.648802,45.7749036 C143.536256,43.8616233 143.479984,42.4266845 143.479984,41.4700444 C143.479984,40.0632206 143.564392,38.6564179 143.733211,37.2495941 L143.733211,36.2366861 C143.733211,35.111227 143.705075,34.2671454 143.648802,33.7044159 C143.479983,32.410138 143.395575,31.1721517 143.395575,29.9904197 C143.283029,28.414777 143.170485,27.1767907 143.057939,26.2764235 L143.057939,24.5038344 C143.057939,23.716013 143.001667,23.153292 142.889121,22.8156543 L142.889121,22.3092002 C142.945394,21.2400141 143.254891,20.3818645 143.81762,19.7347256 C144.38035,19.0875866 145.224431,18.764022 146.34989,18.764022 C146.631255,18.764022 147.109568,18.8202941 147.784843,18.93284 C148.178754,19.0453859 148.530455,19.1719982 148.839956,19.3126805 C149.149457,19.4533629 149.444886,19.5518391 149.726251,19.6081121 C151.752077,20.5084793 152.680567,21.8027378 152.511748,23.4909263 C152.342929,25.0665689 152.258521,26.6421879 152.258521,28.2178306 C152.202248,28.6680142 152.131908,29.6527761 152.047498,31.1721458 C151.963089,32.6915154 151.80834,34.0701821 151.583249,35.308187 C151.358157,36.2648272 151.301885,37.5309496 151.414431,39.1065922 C151.526977,40.2320513 151.583249,41.1042689 151.583249,41.7232714 C151.583249,42.7361845 151.470704,44.4806198 151.245613,46.9566297 C151.18934,47.2379945 151.161204,47.6881713 151.161204,48.3071738 C151.161204,49.0949951 151.18934,49.6858522 151.245613,50.0797629 C151.301886,50.4174006 151.330022,50.9238496 151.330022,51.599125 C151.330022,52.1055815 151.301886,52.4994863 151.245613,52.780851 C150.907975,54.6941314 150.682886,56.9450157 150.570341,59.5335714 L150.317114,63.3319767 C150.092022,65.9768054 148.825899,68.4527781 146.518708,70.7599691 C146.068525,71.3226986 145.548008,71.6884673 144.957142,71.8572862 C144.366276,72.026105 143.508126,72.1667853 142.382667,72.2793312 C141.988756,72.3356042 141.468239,72.3637402 140.821101,72.3637402 C140.173962,72.3637402 139.653445,72.3918763 139.259534,72.4481492 C138.41544,72.4481492 137.599494,72.2793329 136.811673,71.9416952 Z M157.745106,79.4540966 C156.507101,79.4540966 155.888108,78.8351035 155.888108,77.5970985 C155.888108,72.6450788 155.916244,68.9029837 155.972517,66.3707009 C155.972517,63.894691 156.085061,60.1807319 156.310153,55.2287122 C156.478972,50.8956949 156.732196,46.5908787 157.069834,42.3141344 C157.294926,38.6563926 157.632558,34.8861614 158.082742,31.0033277 L158.504787,26.7828775 C158.56106,26.3326939 158.743944,25.7418368 159.053446,25.0102884 C159.362947,24.27874 159.545831,23.744155 159.602104,23.4065173 C159.827196,22.3936042 160.178897,21.6902028 160.657217,21.2962922 C161.135537,20.9023815 161.909278,20.7054291 162.978464,20.7054291 C164.554107,20.817975 165.876501,21.2400158 166.945688,21.9715642 C167.733509,22.4780208 168.127414,23.1814221 168.127414,24.0817893 C168.127414,25.601159 168.15555,26.7266012 168.211823,27.4581495 C168.211823,27.5706954 168.225891,27.7254437 168.254027,27.9223991 C168.282164,28.1193544 168.352504,28.2459666 168.46505,28.3022396 L168.633868,28.3022396 C168.746414,28.3022396 168.858958,28.2318994 168.971504,28.0912171 C169.08405,27.9505347 169.168458,27.8520585 169.224731,27.7957856 C169.843733,27.1205101 170.884767,26.3608367 172.347864,25.5167424 C173.473323,24.9540129 174.711309,24.6726524 176.06186,24.6726524 C176.905954,24.6726524 177.750036,24.7570605 178.59413,24.9258794 C179.494497,25.0384253 180.169763,25.1509695 180.619946,25.2635154 C182.476954,25.9387908 183.71494,27.0079609 184.333943,28.4710576 C184.952945,29.9341543 185.262442,31.847406 185.262442,34.2108699 C185.262442,36.3492421 184.981081,38.7408066 184.418352,41.3856354 C184.249533,42.1171837 184.094784,42.9894014 183.954102,44.0023145 C183.81342,45.0152276 183.714944,45.8030371 183.658671,46.3657667 C183.602398,47.3224068 183.180357,48.3353048 182.392535,49.4044908 C180.816893,51.8805007 179.578906,53.6530721 178.678539,54.7222582 C178.284629,55.2287147 177.91886,55.5100753 177.581222,55.5663482 C175.386577,56.2978966 173.58587,56.6636653 172.179046,56.6636653 C171.278679,56.6636653 170.322053,56.494849 169.30914,56.1572112 C169.027775,56.0446653 168.577598,55.9883932 167.958596,55.9883932 L167.452142,55.9883932 C167.058231,55.9883932 166.819074,56.0587334 166.734665,56.1994157 C166.650256,56.3400981 166.636188,56.6355267 166.692461,57.0857103 C166.748734,58.0986234 166.720597,59.1818615 166.608052,60.335457 C166.495506,61.4890525 166.411097,62.262794 166.354825,62.6567046 C166.129733,64.9076227 166.017189,66.5957859 166.017189,67.7212449 L166.017189,69.071789 C166.073461,69.4094267 166.101598,69.9440117 166.101598,70.6755601 C166.101598,72.1949298 165.876509,73.9112291 165.426325,75.8245094 C165.426325,75.9933283 165.384121,76.2887568 165.299712,76.710804 C165.215303,77.1328511 165.102758,77.4986198 164.962076,77.808121 C164.821394,78.1176223 164.582237,78.3849148 164.244599,78.6100066 C163.625597,78.9476443 163.231692,79.1445967 163.062873,79.2008696 C162.781509,79.2571426 162.303196,79.3415507 161.62792,79.4540966 C160.952645,79.5666425 160.361788,79.6229146 159.855331,79.6229146 C159.348875,79.6229146 158.983106,79.5947786 158.758014,79.5385056 C158.532922,79.4822327 158.19529,79.4540966 157.745106,79.4540966 Z M172.010228,49.9953539 C172.23532,49.9953539 172.432272,49.8546736 172.601091,49.5733089 C172.826183,49.1793982 173.248224,48.4900649 173.867226,47.5052882 C174.486228,46.5205116 174.978609,45.6060898 175.344384,44.7619956 C175.710158,43.9179013 175.949314,43.0738197 176.06186,42.2297254 C176.62459,38.3468918 176.962222,35.5895585 177.074768,33.9576429 L177.074768,31.5941908 C177.074768,31.4253719 177.0607,31.1721474 177.032564,30.8345097 C177.004427,30.496872 176.877815,30.2999196 176.652723,30.2436467 L176.483905,30.2436467 C176.315086,30.2436467 176.14627,30.3702589 175.977451,30.6234872 C175.808632,30.8767155 175.667952,31.0595999 175.555406,31.1721458 C174.880131,32.072513 174.289274,33.0854109 173.782817,34.2108699 L172.854318,35.89905 C171.166129,39.0503353 169.815599,42.7080223 168.802686,46.8722207 C168.746413,46.9847666 168.718277,47.1535829 168.718277,47.3786747 C168.718277,47.8851313 168.999637,48.2227639 169.562367,48.3915828 C170.293915,48.6166746 170.912908,49.0387154 171.419365,49.6577179 C171.644457,49.8828097 171.841409,49.9953539 172.010228,49.9953539 Z M18.5353695,157.766255 C17.1432292,157.627041 16.0991396,157.487829 15.4030694,157.348615 C14.4981782,157.209401 13.8543229,156.913576 13.4714843,156.46113 C13.0886457,156.008684 12.8972293,155.330026 12.8972293,154.425135 C12.8276223,153.38103 12.8102208,152.476152 12.8450243,151.710475 C12.8798278,150.944798 12.8972293,150.318344 12.8972293,149.831095 L12.8972293,143.879725 L12.7928193,137.615124 C12.7928193,136.292591 12.8276223,135.283304 12.8972293,134.587234 C13.1756574,130.898062 13.3148693,125.329584 13.3148693,117.881634 C13.3148693,113.565999 13.4366798,110.137904 13.6803043,107.597248 C13.9239289,105.056592 14.0805423,103.542662 14.1501494,103.055413 L14.4633794,100.758393 L14.7766094,95.5378928 C14.8462164,94.9810367 14.9854283,94.5982038 15.1942494,94.3893828 C15.4030704,94.1805617 15.7511003,94.0761528 16.2383494,94.0761528 C18.1873459,93.8673317 19.6490713,94.8418153 20.6235696,96.9996329 C21.3892468,98.8790223 21.8416856,101.524049 21.9808996,104.934793 L22.3985396,113.496413 C22.4681467,114.888554 22.5377526,116.332878 22.6073597,117.829429 C22.6769667,119.325979 22.7117697,120.770303 22.7117697,122.162444 C22.7813767,123.067335 22.8161797,124.424651 22.8161797,126.234434 C22.8161797,128.044216 22.7813767,129.401533 22.7117697,130.306424 L22.7117697,130.828474 C22.7117697,131.315723 22.8161786,131.611549 23.0249997,131.715959 C23.2338207,131.82037 23.6514566,131.872574 24.2779197,131.872574 C24.9043829,131.942181 25.8440635,131.976984 27.0969898,131.976984 C27.6538459,131.907377 28.0018758,131.785567 28.1410898,131.611549 C28.2803039,131.437532 28.3499099,131.0721 28.3499099,130.515244 L28.3499099,126.965304 C28.3499099,122.85849 28.5239248,119.378191 28.8719599,116.524304 C29.428816,112.695918 29.7072399,108.484756 29.7072399,103.890693 C29.7072399,101.176019 29.8116489,98.5657954 30.0204699,96.0599428 C30.229291,93.8325183 30.5425178,91.5355212 30.9601599,89.1688826 C31.099374,88.7512405 31.2385859,88.1247867 31.3778,87.2895025 C31.517014,86.4542183 31.6562259,85.8973705 31.79544,85.6189425 C31.934654,85.3405144 32.2478809,85.2013024 32.73513,85.2013024 L33.67482,85.3057124 C35.9022446,85.6537475 37.8860148,86.4194132 39.6261903,87.6027325 C41.2271516,88.7164448 42.1320293,90.4565941 42.3408503,92.8232327 L42.4452604,93.9717428 C42.4452604,94.946241 42.3060484,95.7467097 42.0276203,96.3731728 C41.5403712,97.9741342 41.3663563,100.097116 41.5055703,102.742183 C41.5751773,103.299039 41.6099803,104.169114 41.6099803,105.352433 L41.5055703,108.902373 C41.3663563,110.433728 41.2967503,111.686635 41.2967503,112.661133 C41.2967503,113.566025 41.4359623,114.923341 41.7143903,116.733124 C41.8536044,117.707622 41.9232103,118.473287 41.9232103,119.030144 L41.8188003,121.431574 C41.6795863,122.823714 41.6447833,123.867804 41.7143903,124.563874 L41.8188003,126.652074 C41.8188003,127.626572 41.7491944,129.157904 41.6099803,131.246114 C41.4011593,133.543146 41.3315533,135.596522 41.4011603,137.406304 C41.4707673,138.171981 41.4359643,139.32048 41.2967503,140.851834 C41.1575363,142.104761 41.0879303,143.044441 41.0879303,143.670904 C41.0879303,144.366975 41.0357258,145.045633 40.9313153,145.7069 C40.8269048,146.368166 40.7747003,147.046824 40.7747003,147.742895 C40.7747003,148.369358 40.8095033,148.821797 40.8791103,149.100225 L40.8791103,149.726685 C40.8791103,150.07472 40.8095043,150.596765 40.6702903,151.292835 C40.5310763,151.849691 40.3570613,152.232524 40.1482403,152.441345 C39.9394192,152.650166 39.5565864,152.719772 38.9997302,152.650165 C38.5820881,152.580558 37.9904374,152.545755 37.2247602,152.545755 L34.0924601,152.650165 C33.1875688,152.650165 32.1434792,152.47615 30.9601599,152.128115 C30.1944828,151.849687 29.6550365,151.466854 29.3418049,150.979605 C29.0285733,150.492356 28.8719599,149.831099 28.8719599,148.995815 C28.8719599,145.793892 28.7675509,143.392486 28.5587299,141.791524 C28.4891228,141.095454 28.3325094,140.643015 28.0888848,140.434194 C27.8452603,140.225373 27.37542,140.120964 26.6793498,140.120964 L23.9646897,140.120964 C23.4078336,140.120964 23.0250007,140.225373 22.8161797,140.434194 C22.6073586,140.643015 22.5029497,141.025848 22.5029497,141.582704 C22.4333426,143.183666 22.3985396,145.585072 22.3985396,148.786995 C22.3985396,151.153633 22.3289337,152.928586 22.1897196,154.111905 L22.1897196,154.633955 L22.2941296,156.722155 C22.2941296,157.279011 22.1897207,157.661844 21.9808996,157.870665 C21.7720786,158.079486 21.3892457,158.149092 20.8323896,158.079485 L18.5353695,157.766255 Z M59.881731,159.48902 C58.4199836,159.106181 57.0104626,158.688546 55.6531258,158.2361 C54.295789,157.783654 53.3387069,157.453026 52.7818507,157.244205 C50.8328542,156.548135 49.3885303,155.538848 48.4488356,154.216315 C47.5091408,152.893782 46.9696945,151.153632 46.8304805,148.995815 C46.6912665,146.350748 46.6216605,144.401781 46.6216605,143.148854 C46.6216605,141.199858 46.7260695,139.285694 46.9348905,137.406304 L49.0230906,117.255174 C49.8583748,109.319974 50.5544345,103.368663 51.1112907,99.4010629 C51.2505047,98.2873507 51.5289286,96.6864133 51.9465707,94.5982028 C52.5034268,91.9531361 52.8514567,89.9693659 52.9906707,88.6468326 C53.0602777,88.1595834 53.2864972,87.8289551 53.6693357,87.6549375 C54.0521743,87.48092 54.5220147,87.3939125 55.0788708,87.3939125 C58.2111866,87.2546985 60.7518046,87.3939104 62.7008011,87.8115525 C64.3017625,88.1595876 66.7031685,88.6120264 69.9050913,89.1688826 C70.3923404,89.1688826 70.8447793,89.2732915 71.2624214,89.4821126 C71.8888845,89.7605407 72.2021114,90.3521914 72.2021114,91.2570827 C72.2021114,92.2315809 71.7496726,92.7884287 70.8447813,92.9276427 C69.1742129,93.2060708 67.9561084,93.3452827 67.1904312,93.3452827 C66.494361,93.3452827 65.9723162,93.3104797 65.6242812,93.2408727 C64.928211,93.1016587 64.3713632,93.0320527 63.9537211,93.0320527 C63.396865,93.0320527 62.6834037,93.1016587 61.813316,93.2408727 C60.9432283,93.3800868 60.1949641,93.4844957 59.568501,93.5541027 C58.6636097,93.5541027 58.2807769,94.0065416 58.4199909,94.9114328 C58.698419,96.9300363 58.8376309,99.2270334 58.8376309,101.802493 C58.8376309,103.125026 58.768025,105.108797 58.6288109,107.753863 C58.4895969,111.025393 58.4547939,113.496405 58.5244009,115.166973 C58.5244009,117.951254 58.5592039,120.039433 58.6288109,121.431574 C58.6984179,122.058037 58.8376299,122.475673 59.0464509,122.684494 C59.255272,122.893315 59.6729078,123.032527 60.299371,123.102134 L62.8052111,123.102134 C64.2669584,123.102134 65.6590779,123.206543 66.9816112,123.415364 C68.0953235,123.554578 68.6869743,124.146229 68.7565813,125.190334 C68.8957953,126.025618 68.9654013,126.652072 68.9654013,127.069714 C68.8261872,127.904998 68.5825663,128.531452 68.2345313,128.949094 C67.8864962,129.366736 67.3296484,129.64516 66.5639712,129.784374 C66.0767221,129.853981 65.2762534,130.010594 64.1625411,130.254219 C63.0488288,130.497844 62.0395422,130.619654 61.134651,130.619654 C60.5777949,130.619654 60.160159,130.584851 59.881731,130.515244 L59.672911,130.515244 C59.0464478,130.515244 58.628812,130.967683 58.4199909,131.872574 C58.1415628,133.821571 57.9327449,136.779824 57.7935309,140.747424 C57.7935309,141.861137 57.7239249,143.53168 57.5847109,145.759105 C57.5847109,147.220852 57.5151049,148.299745 57.3758909,148.995815 L57.3758909,149.517865 C57.3758909,150.213935 57.7239207,150.840389 58.4199909,151.397245 C59.4640962,152.093315 60.5081858,152.441345 61.552291,152.441345 C62.6660033,152.441345 64.3365466,152.510951 66.5639712,152.650165 C67.3296484,152.719772 67.8342917,152.876385 68.0779162,153.12001 C68.3215408,153.363634 68.4433513,153.868278 68.4433513,154.633955 L68.4433513,155.260415 C68.3737442,157.00059 68.0605174,158.236096 67.5036612,158.96697 C66.9468051,159.697844 65.9375185,160.063275 64.4757711,160.063275 C62.8748097,160.063275 61.3434783,159.871859 59.881731,159.48902 Z M82.5387018,158.601535 C81.8426316,158.323107 81.2857838,158.183895 80.8681417,158.183895 C79.6152154,158.044681 78.6929362,157.67925 78.1012766,157.08759 C77.509617,156.49593 77.1789886,155.573651 77.1093816,154.320725 L77.0049716,152.023705 C76.8657575,149.935494 76.7961516,148.404163 76.7961516,147.429665 C76.7961516,146.246345 76.7613486,145.341468 76.6917416,144.715005 C76.6917416,142.348366 76.6221356,140.573414 76.4829215,139.390094 L76.3785115,137.615124 C76.3785115,136.431805 76.5177235,134.587247 76.7961516,132.081394 C76.9353656,130.55004 77.0049716,128.287846 77.0049716,125.294744 L77.0049716,119.761014 C77.0049716,118.856122 77.0745775,117.568412 77.2137916,115.897844 C77.3530056,113.670419 77.3878086,112.034679 77.3182016,110.990573 C77.2485946,110.085682 77.2137916,108.728366 77.2137916,106.918583 C77.2137916,104.89998 77.2833975,101.802514 77.4226116,97.6260929 C77.4226116,95.8859175 77.5270205,94.2501771 77.7358416,92.7188227 L77.7358416,91.9879527 C77.7358416,91.2918825 77.6314326,90.5958228 77.4226116,89.8997526 C77.2137905,89.2732895 77.1093816,88.8904566 77.1093816,88.7512426 C77.0397745,88.5424215 77.0049716,88.2988006 77.0049716,88.0203725 C77.0049716,87.2546954 77.5618193,86.9066655 78.6755316,86.9762725 C78.8843527,87.0458795 79.1975796,87.0806825 79.6152217,87.0806825 C80.1024708,87.0806825 80.5201066,87.0458795 80.8681417,86.9762725 C81.2161768,86.9066655 81.5294037,86.8370595 81.8078317,86.7674525 C82.991151,86.5586314 84.1048466,86.4542225 85.1489518,86.4542225 C86.6106992,86.4542225 87.9332127,86.5934344 89.116532,86.8718625 C91.1351355,87.2198976 92.8056788,88.0899723 94.1282122,89.4821126 C95.7987806,91.291895 97.0168851,92.6840145 97.7825623,93.6585127 C99.1747026,95.3290812 99.8707624,97.2084424 99.8707624,99.2966529 C99.8707624,100.549579 99.6619444,101.802487 99.2443023,103.055413 L99.0354823,103.473053 C98.9658753,103.612267 98.9310723,103.786282 98.9310723,103.995103 C98.7222513,105.317636 98.1654035,106.361726 97.2605123,107.127403 C96.3556211,107.89308 95.2071225,108.484731 93.8149822,108.902373 C92.9796979,109.180801 91.9704113,109.63324 90.787092,110.259703 L89.534172,110.886163 C88.9773159,111.164591 88.4552711,111.373409 87.9680219,111.512623 C87.3415588,111.721444 87.2023468,112.13908 87.5503819,112.765543 L88.803302,115.062563 L96.0075922,129.471144 C98.6526589,134.69167 100.88005,138.76362 102.689832,141.687114 C103.316296,142.800827 103.629522,143.949325 103.629522,145.132645 C103.629522,145.550287 103.559917,146.17674 103.420702,147.012025 C103.072667,148.543379 102.307002,149.309045 101.123682,149.309045 C100.358005,149.309045 99.6967485,149.065424 99.1398923,148.578175 C98.1653941,147.812497 97.1909105,146.663999 96.2164122,145.132645 C95.311521,143.60129 94.2326284,141.234687 92.9797021,138.032764 C90.8914916,132.742631 88.5944945,127.174153 86.0886419,121.327164 C86.0886419,121.257557 86.0364374,121.048739 85.9320269,120.700704 C85.8276164,120.352669 85.6361999,120.213457 85.3577719,120.283064 C85.2185578,120.283064 85.1663533,120.439677 85.2011569,120.752909 C85.2359604,121.06614 85.2533619,121.29236 85.2533619,121.431574 C85.3925759,123.658998 85.4621819,125.399148 85.4621819,126.652074 C85.4621819,127.905 85.5317878,129.64515 85.6710019,131.872574 L85.7754119,137.197484 C85.7754119,138.102375 85.7058059,139.529298 85.5665919,141.478294 C85.5665919,142.243972 85.6361978,143.39247 85.7754119,144.923825 C85.9146259,146.315965 85.9842319,148.369341 85.9842319,151.084015 C85.9842319,153.868295 86.0190349,155.956475 86.0886419,157.348615 C86.0886419,158.114292 85.9320284,158.636337 85.6187969,158.914765 C85.3055653,159.193193 84.766119,159.262799 84.0004418,159.123585 C83.5131927,159.053978 83.0259509,158.879963 82.5387018,158.601535 Z M86.5062819,102.533363 C86.923924,102.254935 87.8462031,101.593678 89.273147,100.549573 C90.7000908,99.5054677 92.1096118,98.6701961 93.5017521,98.0437329 C93.9890013,97.8349118 94.2326222,97.5912909 94.2326222,97.3128629 C94.2326222,96.9648278 94.0934102,96.6167979 93.8149822,96.2687628 C92.7012699,94.6678014 91.1003325,93.8673328 89.012122,93.8673328 C88.3160518,93.8673328 87.6547951,93.9021357 87.0283319,93.9717428 C86.4018688,94.0413498 85.740612,94.0761528 85.0445418,94.0761528 C84.4180787,94.1457598 84.0352458,94.2675702 83.8960318,94.4415878 C83.7568178,94.6156053 83.7220148,95.0854456 83.7916218,95.8511228 C83.8612288,96.1991579 83.8960318,96.7386042 83.8960318,97.4694779 C83.8960318,98.2003516 83.9308348,98.8094038 84.0004418,99.2966529 C84.0700488,99.9927231 84.1744578,100.619177 84.3136718,101.176033 C84.4528859,101.732889 84.5572948,102.220131 84.6269018,102.637773 C84.7661159,103.264236 85.1141457,103.403448 85.6710019,103.055413 C85.7406089,103.055413 86.0190328,102.881398 86.5062819,102.533363 Z M121.065993,159.48902 C119.604246,159.106181 118.194725,158.688546 116.837388,158.2361 C115.480051,157.783654 114.522969,157.453026 113.966113,157.244205 C112.017116,156.548135 110.572792,155.538848 109.633098,154.216315 C108.693403,152.893782 108.153957,151.153632 108.014743,148.995815 C107.875529,146.350748 107.805923,144.401781 107.805923,143.148854 C107.805923,141.199858 107.910332,139.285694 108.119153,137.406304 L110.207353,117.255174 C111.042637,109.319974 111.738697,103.368663 112.295553,99.4010629 C112.434767,98.2873507 112.713191,96.6864133 113.130833,94.5982028 C113.687689,91.9531361 114.035719,89.9693659 114.174933,88.6468326 C114.24454,88.1595834 114.470759,87.8289551 114.853598,87.6549375 C115.236436,87.48092 115.706277,87.3939125 116.263133,87.3939125 C119.395449,87.2546985 121.936067,87.3939104 123.885063,87.8115525 C125.486025,88.1595876 127.887431,88.6120264 131.089353,89.1688826 C131.576603,89.1688826 132.029041,89.2732915 132.446684,89.4821126 C133.073147,89.7605407 133.386374,90.3521914 133.386374,91.2570827 C133.386374,92.2315809 132.933935,92.7884287 132.029043,92.9276427 C130.358475,93.2060708 129.140371,93.3452827 128.374693,93.3452827 C127.678623,93.3452827 127.156578,93.3104797 126.808543,93.2408727 C126.112473,93.1016587 125.555625,93.0320527 125.137983,93.0320527 C124.581127,93.0320527 123.867666,93.1016587 122.997578,93.2408727 C122.12749,93.3800868 121.379226,93.4844957 120.752763,93.5541027 C119.847872,93.5541027 119.465039,94.0065416 119.604253,94.9114328 C119.882681,96.9300363 120.021893,99.2270334 120.021893,101.802493 C120.021893,103.125026 119.952287,105.108797 119.813073,107.753863 C119.673859,111.025393 119.639056,113.496405 119.708663,115.166973 C119.708663,117.951254 119.743466,120.039433 119.813073,121.431574 C119.88268,122.058037 120.021892,122.475673 120.230713,122.684494 C120.439534,122.893315 120.85717,123.032527 121.483633,123.102134 L123.989473,123.102134 C125.451221,123.102134 126.84334,123.206543 128.165873,123.415364 C129.279586,123.554578 129.871236,124.146229 129.940843,125.190334 C130.080057,126.025618 130.149663,126.652072 130.149663,127.069714 C130.010449,127.904998 129.766828,128.531452 129.418793,128.949094 C129.070758,129.366736 128.513911,129.64516 127.748233,129.784374 C127.260984,129.853981 126.460516,130.010594 125.346803,130.254219 C124.233091,130.497844 123.223804,130.619654 122.318913,130.619654 C121.762057,130.619654 121.344421,130.584851 121.065993,130.515244 L120.857173,130.515244 C120.23071,130.515244 119.813074,130.967683 119.604253,131.872574 C119.325825,133.821571 119.117007,136.779824 118.977793,140.747424 C118.977793,141.861137 118.908187,143.53168 118.768973,145.759105 C118.768973,147.220852 118.699367,148.299745 118.560153,148.995815 L118.560153,149.517865 C118.560153,150.213935 118.908183,150.840389 119.604253,151.397245 C120.648358,152.093315 121.692448,152.441345 122.736553,152.441345 C123.850265,152.441345 125.520809,152.510951 127.748233,152.650165 C128.513911,152.719772 129.018554,152.876385 129.262178,153.12001 C129.505803,153.363634 129.627613,153.868278 129.627613,154.633955 L129.627613,155.260415 C129.558006,157.00059 129.24478,158.236096 128.687923,158.96697 C128.131067,159.697844 127.121781,160.063275 125.660033,160.063275 C124.059072,160.063275 122.52774,159.871859 121.065993,159.48902 Z" id="Sign-up-here" style="mix-blend-mode: multiply;" transform="translate(98.827621, 87.725468) rotate(-11.000000) translate(-98.827621, -87.725468) "></path>
            <path d="M176.974978,147.301431 L176.841196,147.391033 L177.023035,147.514398 L176.974978,147.301431 Z M175.476104,143.742029 C175.444932,143.805659 175.372196,143.891365 175.389081,143.923829 C175.476104,144.070569 175.590403,144.200427 175.691714,144.338076 C175.750162,144.240683 175.881346,144.084853 175.857966,144.056284 C175.755357,143.931621 175.607288,143.843318 175.476104,143.742029 L175.476104,143.742029 Z M18.4346791,131.557469 C18.5502768,131.462673 18.6710699,131.367877 18.7814722,131.262692 C18.7866676,131.261393 18.7074377,131.166597 18.6671733,131.115953 C18.5515756,131.215943 18.4320814,131.314635 18.3255756,131.421119 C18.3203802,131.425014 18.4009089,131.517213 18.4346791,131.557469 L18.4346791,131.557469 Z M19.3958285,133.893611 C19.321794,134.027365 19.2490584,134.162417 19.1763227,134.293574 C19.2516561,134.309156 19.3594607,134.364995 19.4010239,134.335128 C19.5192193,134.245526 19.6140354,134.122161 19.7166446,134.010483 C19.6101388,133.971526 19.5036331,133.933867 19.3958285,133.893611 L19.3958285,133.893611 Z M105.130357,89.7081896 C105.045932,89.6822181 104.9693,89.6601422 104.891369,89.6354693 C104.884874,89.7419527 104.879679,89.8471375 104.874484,89.9523223 C104.952415,89.9367394 105.043334,89.9406351 105.099185,89.8964835 C105.136851,89.8692133 105.121265,89.7731186 105.130357,89.7081896 L105.130357,89.7081896 Z M163.905943,245.215526 C163.939714,245.380446 163.972185,245.542768 164.004656,245.707687 C164.164415,245.657043 164.382622,245.649251 164.464449,245.540171 C164.522897,245.459659 164.398208,245.246692 164.355346,245.092161 C164.207277,245.132417 164.057909,245.17527 163.905943,245.215526 L163.905943,245.215526 Z M190.093369,228.195062 C189.931012,228.349592 189.740081,228.517109 189.564737,228.700209 C189.514081,228.756047 189.506288,228.854739 189.479012,228.932654 C189.607599,228.932654 189.772553,228.983299 189.856978,228.923564 C190.054403,228.775526 190.220656,228.583337 190.384311,228.392446 C190.418081,228.354787 190.38561,228.253498 190.383012,228.182076 C190.299886,228.184673 190.214162,228.189867 190.093369,228.195062 L190.093369,228.195062 Z M150.497909,109.007659 C150.548564,109.16219 150.562851,109.345289 150.656369,109.468654 C150.757679,109.602408 150.929127,109.685517 151.072001,109.786806 C151.021346,109.629678 151.009656,109.44528 150.91484,109.319318 C150.816127,109.185564 150.640783,109.106351 150.497909,109.007659 L150.497909,109.007659 Z M18.1385411,135.638901 C17.9644952,136.051848 17.7670699,136.511545 17.5878285,136.980332 C17.5709434,137.023185 17.6631618,137.140057 17.7294032,137.175119 C17.7969434,137.214076 17.9592998,137.225763 17.9735871,137.195896 C18.1956906,136.751782 18.4074032,136.29728 18.6035296,135.841479 C18.6256101,135.790834 18.5671618,135.663574 18.5126101,135.636303 C18.4463687,135.599943 18.3450584,135.631109 18.1385411,135.638901 L18.1385411,135.638901 Z M150.087472,112.544986 C149.735484,112.268389 149.408173,111.999583 149.067874,111.747659 C149.014622,111.704806 148.904219,111.738569 148.819794,111.739867 C148.819794,111.867128 148.766541,112.060616 148.831484,112.113858 C149.160093,112.382664 149.518576,112.620303 149.869265,112.864436 C150.005645,112.960531 150.148518,113.048834 150.288794,113.139735 C150.221254,112.942351 150.156311,112.744967 150.087472,112.544986 L150.087472,112.544986 Z M170.671656,129.079782 C170.388507,128.731763 170.117047,128.374654 169.814415,128.044815 C169.709208,127.93054 169.529966,127.882493 169.384495,127.804578 C169.428656,127.970796 169.442943,128.156493 169.527369,128.301934 C169.879357,128.922654 170.231346,129.54727 170.627495,130.14072 C170.965196,130.644569 171.32238,131.152313 171.758794,131.562664 C171.886081,131.686029 171.714633,130.469261 171.179507,129.706995 C171.023645,129.487536 170.840507,129.290152 170.671656,129.079782 L170.671656,129.079782 Z M48.7199779,105.419687 C49.1576906,105.062578 49.3720009,104.904152 49.5642308,104.723649 C49.6824262,104.61327 49.7681503,104.469128 49.8707595,104.340569 C49.7084032,104.402901 49.5473457,104.463934 49.3862883,104.527564 C48.414748,104.911943 47.4432078,105.291128 46.4781618,105.688493 C46.3235986,105.752123 46.1677365,105.880683 46.0807135,106.020929 C46.0014837,106.149488 45.9521273,106.366351 46.0079779,106.487119 C46.0534377,106.58581 46.3210009,106.694891 46.4132193,106.648142 C47.2782538,106.210521 48.1251044,105.741735 48.7199779,105.419687 L48.7199779,105.419687 Z M38.444771,109.684218 C38.0473227,110.117943 37.68884,110.501024 37.3433457,110.893194 C37.2926906,110.949033 37.2654147,111.115251 37.288794,111.129536 C37.4303687,111.215242 37.601817,111.346398 37.7433917,111.323024 C38.670771,111.165896 39.3292883,110.615299 39.7657021,109.804986 C39.8293457,109.682919 39.7877825,109.449175 39.7046561,109.328408 C39.6384147,109.229716 39.400725,109.142711 39.3007135,109.188161 C38.9850929,109.328408 38.6980469,109.532284 38.444771,109.684218 L38.444771,109.684218 Z M24.0431158,125.774901 C23.2469204,126.821555 22.4052653,127.978588 21.9545641,129.373261 C21.9013112,129.535583 21.9363802,129.727773 21.929886,129.904379 C22.0870469,129.851138 22.2987595,129.843346 22.3909779,129.734265 C23.3274492,128.630474 24.1327365,127.443574 24.6340929,126.073574 C24.6899434,125.920341 24.6743572,125.739839 24.6925411,125.572322 C24.5249894,125.622967 24.3587365,125.676209 24.0431158,125.774901 L24.0431158,125.774901 Z M27.5604032,117.880844 C28.1085181,117.432834 28.5540239,117.119877 28.9371848,116.744588 C30.0892653,115.614825 31.2491388,114.487659 32.3323802,113.294265 C32.655794,112.938455 32.7324262,112.359289 32.9233572,111.88401 C32.5401963,112.106066 32.0868975,112.259299 31.7907595,112.565763 C30.2256446,114.168209 28.6942998,115.803119 27.1655526,117.440626 C26.5654837,118.08472 26.0017825,118.762578 25.4211963,119.423555 C26.5472998,119.380701 26.8174607,118.162635 27.5604032,117.880844 L27.5604032,117.880844 Z M180.259771,155.042256 C180.211714,155.21237 180.100012,155.394171 180.125989,155.553896 C180.529932,158.1991 180.92738,160.846901 181.385874,163.484313 C181.471599,163.972578 181.779426,164.434872 182.041794,164.876389 C182.152196,165.059488 182.327541,164.384228 182.214541,163.332379 C182.044392,161.736427 181.900219,160.131384 181.611874,158.556209 C181.405357,157.425147 180.991024,156.327848 180.642932,155.225356 C180.614357,155.129261 180.392254,155.099393 180.259771,155.042256 L180.259771,155.042256 Z M158.976806,114.252616 C157.405196,112.811194 155.63876,111.178882 153.843748,109.579033 C153.715162,109.46346 153.372265,109.586825 153.130679,109.595915 C153.173541,109.763431 153.169645,109.971204 153.269656,110.094569 C155.341323,112.672247 157.723415,114.940863 160.253576,117.058844 C160.335403,117.128967 160.606863,117.086114 160.702978,117.000408 C160.806886,116.90691 160.895208,116.629014 160.835461,116.552398 C160.296438,115.845972 159.724943,115.166815 158.976806,114.252616 L158.976806,114.252616 Z M56.0338055,97.800929 C55.829886,97.8918295 55.7025986,98.1515451 55.5402423,98.3346446 C55.7181848,98.3177631 55.9026216,98.3294503 56.072771,98.2827015 C56.5884147,98.1437536 57.1105526,98.016493 57.6093112,97.8243034 C61.0343802,96.4997536 64.4555526,95.1609195 67.8780239,93.823384 C68.0442768,93.758455 68.2196216,93.6870332 68.3508055,93.5753555 C68.4793917,93.4662749 68.5573227,93.3013555 68.6586331,93.1611091 C68.5170584,93.1039716 68.363794,92.9806067 68.2339089,93.0026825 C67.5299319,93.127346 66.8220584,93.2468152 66.1375641,93.4429005 C62.5800124,94.4518958 59.3809434,96.2997726 56.0338055,97.800929 L56.0338055,97.800929 Z M162.096645,124.552938 C162.052484,124.580209 162.008323,124.607479 161.965461,124.636047 C161.682311,124.288029 161.414748,123.925725 161.101725,123.608872 C161.026392,123.532256 160.738047,123.55563 160.648426,123.638739 C160.5653,123.717953 160.549714,123.968578 160.61076,124.090645 C160.853645,124.571119 161.112116,125.047697 161.414748,125.495706 C163.266909,128.255185 165.132058,131.009469 167.002403,133.758559 C167.094622,133.892313 167.290748,133.952047 167.438817,134.048142 C167.415438,133.888417 167.423231,133.710512 167.355691,133.576758 C166.416622,131.743166 165.784081,129.744654 164.326771,128.196749 C163.969587,127.814967 163.760472,127.294237 163.481219,126.838436 C163.020127,126.076171 162.557737,125.313905 162.096645,124.552938 L162.096645,124.552938 Z M36.054886,115.996607 C36.019817,115.957649 35.9821503,115.919991 35.9457825,115.878436 C33.5325181,118.160038 31.0932768,120.410474 28.7293687,122.741422 C27.8422538,123.614066 27.1122998,124.656825 26.362863,125.660626 C26.1069894,126.006047 25.9810009,126.457953 25.8511158,126.879991 C25.8134492,127.002057 25.9615181,127.195545 26.0563342,127.333194 C26.0771158,127.365659 26.2485641,127.348777 26.3083112,127.30073 C26.8005756,126.922844 27.3240124,126.570929 27.7578285,126.134607 C28.5787021,125.307412 29.2865756,124.35945 30.1477135,123.580303 C33.6792883,120.390995 36.9004377,116.904313 40.0605411,113.356597 C40.1345756,113.27219 40.0865181,113.077403 40.0956101,112.933261 C39.9306561,112.9891 39.7332308,113.002085 39.6059434,113.104673 C38.4148975,114.059128 37.23684,115.029166 36.054886,115.996607 L36.054886,115.996607 Z M84.5292883,93.7636494 C79.5806676,93.167602 74.9684492,94.3947584 70.4965067,96.372493 C70.3614262,96.4322276 70.2873917,96.63091 70.1860814,96.7672607 C70.3925986,96.8659527 70.6160009,97.0789195 70.8017365,97.0490522 C75.2139319,96.3348342 79.5313112,95.1816967 83.8577825,94.0856967 C84.1045641,94.0220664 84.3136791,93.8116967 84.5396791,93.6688531 L84.7306101,93.7805309 L84.5292883,93.7636494 Z M175.033196,211.891412 C174.907208,212.06672 174.783817,212.242029 174.660426,212.417337 C174.727966,212.399156 174.844863,212.393962 174.855254,212.358901 C174.900714,212.20437 174.9163,212.036853 174.940978,211.874531 C176.836001,210.227934 178.097185,208.322919 177.48153,205.650446 L177.489323,205.505005 L177.569851,205.658237 C176.185277,207.029536 175.69561,208.851441 175.113725,210.618806 C174.986438,211.009678 175.053978,211.465479 175.033196,211.891412 L175.033196,211.891412 Z M130.444955,99.5721896 C129.633173,98.4593081 128.556426,97.951564 127.174449,98.133365 C126.996507,98.0022086 126.821162,97.8710522 126.64192,97.7398958 C126.661403,97.8061233 126.664001,97.9203982 126.700369,97.933384 C126.858828,97.9853271 127.025081,98.0074029 127.188737,98.0398674 C128.013507,99.1150901 129.159093,99.469602 130.455346,99.478692 C130.506001,99.4825877 130.556656,99.4877821 130.609909,99.4942749 C130.555357,99.5202465 130.500806,99.5449195 130.444955,99.5721896 L130.444955,99.5721896 Z M15.8356791,136.015488 L15.7486561,136.198588 L15.7447595,136.003801 C15.957771,135.84018 16.1863687,135.692142 16.383794,135.51164 C16.8604722,135.083109 17.2851963,134.620815 17.1812883,133.909194 C17.1760929,133.878029 17.035817,133.835175 16.9708745,133.850758 C16.2318285,134.010483 16.0551848,134.641592 15.870748,135.235043 C15.7954147,135.47528 15.844771,135.754474 15.8356791,136.015488 L15.8356791,136.015488 Z M181.163771,199.870474 C181.15338,199.818531 181.145587,199.770483 181.135196,199.722436 C181.175461,199.773081 181.217024,199.826322 181.257288,199.876967 C180.649426,200.25745 180.575392,200.884664 180.536426,201.510578 C180.529932,201.630047 180.687093,201.757308 180.767622,201.88327 C180.829966,201.827431 180.93907,201.776787 180.946863,201.713156 C181.027392,201.100228 181.092334,200.483403 181.163771,199.870474 L181.163771,199.870474 Z M185.638311,174.524825 C185.626622,174.583261 185.614932,174.6391 185.603242,174.697536 C185.58376,174.636502 185.561679,174.575469 185.542196,174.514436 C185.800668,173.83528 185.886392,173.173005 185.317495,172.589943 C185.412311,172.167905 185.638311,171.730284 185.579863,171.331621 C185.205794,168.782512 184.766783,166.243792 184.349851,163.699877 L184.383622,163.560929 L184.436874,163.708967 C183.925127,164.076465 183.949806,164.588104 184.017346,165.134806 C184.24984,166.97619 184.486231,168.817574 184.662874,170.664152 C184.733012,171.400446 184.892771,172.054929 185.409714,172.595138 C184.948622,173.302863 185.1993,173.923583 185.638311,174.524825 L185.638311,174.524825 Z M123.072679,96.4296304 C122.54015,95.9621422 121.956966,95.6595735 121.219219,95.8868247 C120.417828,95.5141328 119.646311,95.045346 118.81115,94.7817347 C114.454806,93.3987489 109.96338,92.5637631 105.468058,91.8352607 C103.135323,91.4573745 100.738943,90.7418579 98.3451618,91.7612418 C97.9736906,91.9209669 97.4619434,91.7651375 97.0164377,91.7274787 C95.0356906,91.5612607 93.1341733,91.96382 91.2482423,92.5040285 L91.0897825,92.4923413 L91.2560354,92.4170238 C91.6521848,92.5663603 92.0457365,92.8312702 92.4483802,92.8455546 C94.9486676,92.9429479 97.4541503,92.936455 99.9531388,93.0585214 C103.878265,93.250711 107.820277,93.3143413 111.638897,94.4428058 C112.140254,94.5921422 112.755909,94.7583603 113.20661,94.5986351 C114.087231,94.2908721 114.765231,94.6648626 115.527656,94.9063982 C117.381116,95.4933555 119.217691,96.2283508 121.233507,95.7946257 C121.711484,96.4517062 122.31415,96.6828531 123.084369,96.3361328 C123.253219,96.4569005 123.420771,96.5776683 123.589622,96.6971375 C123.570139,96.6400001 123.561047,96.5452039 123.524679,96.5322181 C123.377909,96.4854693 123.224645,96.4620949 123.072679,96.4296304 L123.072679,96.4296304 Z M173.701874,139.537232 C173.726553,139.789156 173.712265,140.052768 173.790196,140.285213 C173.829162,140.404683 174.03438,140.46182 174.165564,140.548825 C174.14738,140.408578 174.172058,140.244957 174.103219,140.137175 C173.965541,139.919014 173.778507,139.734616 173.609656,139.535934 C173.836955,138.948976 173.527828,138.563299 173.110897,138.223071 C173.073231,138.191905 172.977116,138.232161 172.905679,138.238654 C173.114794,138.606152 173.32261,138.976247 173.538219,139.33855 C173.579783,139.412569 173.646024,139.471005 173.701874,139.537232 L173.701874,139.537232 Z M161.752449,227.508114 C161.78492,227.513308 161.851162,227.193858 161.849863,227.518502 C161.97715,227.910673 162.10184,228.304142 162.227828,228.697611 C161.747254,229.791014 161.995334,230.794815 162.5993,231.755763 C162.591507,231.809005 162.582415,231.862247 162.572024,231.912891 C162.551242,231.857052 162.527863,231.80381 162.504484,231.747972 C163.056495,230.645479 162.647357,229.661156 162.125219,228.692417 C162.001828,228.296351 161.877139,227.902882 161.752449,227.508114 L161.752449,227.508114 Z M126.69907,94.9115925 C126.509438,94.8103034 126.321104,94.7103129 126.130173,94.6090238 C126.160047,94.679147 126.180828,94.8038105 126.219794,94.8090048 C126.383449,94.8323792 126.551001,94.820692 126.717254,94.820692 C126.822461,94.9635356 126.901691,95.1375451 127.040668,95.2375356 C127.130288,95.3037631 127.29784,95.2622086 127.431622,95.2700001 C127.357587,95.1336494 127.313426,94.928474 127.199127,94.879128 C127.062748,94.820692 126.86792,94.894711 126.69907,94.9115925 L126.69907,94.9115925 Z M183.014633,157.736806 L183.017231,157.845886 L182.9393,157.721223 C182.908127,157.566692 182.878254,157.412161 182.84838,157.25763 C182.904231,157.417356 182.960081,157.577081 183.014633,157.736806 L183.014633,157.736806 Z M85.7476101,89.2926446 C85.4904377,89.257583 85.2332653,89.22382 84.9773917,89.1913555 C84.6059204,89.3043318 84.2344492,89.4186067 83.8616791,89.5328816 C83.8629779,89.4991186 83.8668745,89.4679527 83.870771,89.4367868 C84.2422423,89.3251091 84.6137135,89.2147299 84.9825871,89.1017536 C85.2397595,89.1342181 85.4982308,89.1666825 85.7567021,89.1965498 C86.0320584,89.2303129 86.3087135,89.2640759 86.5840699,89.2965404 C87.9062998,89.6419622 89.3441273,89.5043129 88.790817,89.1757726 C88.0309894,88.7238674 87.286748,89.0498105 86.5723802,89.3926351 C86.2970239,89.3575735 86.0229664,89.3264076 85.7476101,89.2926446 L85.7476101,89.2926446 Z M183.68484,185.153687 L183.762771,185.044607 L183.767966,185.158882 C183.741989,185.413403 183.716012,185.666626 183.691334,185.925043 C183.656265,186.089962 183.614702,186.260076 183.59392,186.432787 C183.582231,186.513299 183.591323,186.610692 183.626392,186.680815 C183.652369,186.734057 183.734196,186.760029 183.792645,186.79509 C183.818622,186.650948 183.893955,186.49382 183.862783,186.361365 C183.821219,186.20164 183.693932,186.065289 183.601714,185.919848 C183.628989,185.664029 183.656265,185.410806 183.68484,185.153687 L183.68484,185.153687 Z M109.080162,90.4535735 C109.033403,90.4548721 108.986645,90.4574693 108.938587,90.4574693 C108.990541,90.4250048 109.041196,90.3912418 109.091851,90.3561802 C109.33084,90.6678389 109.593208,90.6938105 109.888047,90.436692 C110.006242,90.5600569 110.107553,90.7327678 110.253024,90.7976967 C110.379012,90.8548342 110.559553,90.7925024 110.715415,90.784711 C110.611507,90.6834219 110.519288,90.5249953 110.3933,90.4938295 C110.237438,90.4548721 110.053001,90.5185024 109.877656,90.535384 C109.612691,90.5081138 109.347725,90.4808437 109.080162,90.4535735 L109.080162,90.4535735 Z M180.163656,229.413128 C182.06907,227.763934 183.975783,226.114739 185.882495,224.469441 C186.222794,224.174664 186.576081,223.894171 186.924173,223.609782 C187.773622,222.915043 188.706196,222.082654 189.815415,222.757915 C190.972691,223.464341 191.810449,224.565536 191.626012,226.069289 C191.553277,226.678322 191.679265,227.008161 192.183219,227.409422 C192.831346,227.926256 192.800173,228.493735 192.322196,228.998882 C192.076714,229.259896 191.80915,229.509223 191.514311,229.714398 C188.139897,232.083005 184.975897,234.761972 181.356001,236.779962 C181.11961,236.912417 180.879323,237.046171 180.6793,237.224076 C177.706231,239.858891 174.256484,241.843119 171.117162,244.251981 C169.833897,245.236303 168.484392,246.136218 167.176449,247.090673 C166.595863,247.516607 165.839932,247.865924 165.520415,248.447687 C164.687851,249.956635 163.139622,249.898199 161.840771,250.286474 C161.247196,250.463081 160.427622,250.146228 159.801576,249.857943 C159.498943,249.717697 159.263851,249.132038 159.237874,248.730777 C159.11838,247.032237 159.010576,245.32201 159.040449,243.618275 C159.114484,239.374521 158.696254,235.172322 158.167622,230.975318 C157.46884,225.440777 156.786943,219.90364 156.114139,214.367801 C156.027116,213.657479 156.024518,212.934171 156.018024,212.216057 C156.018024,212.087498 156.189472,211.952446 156.281691,211.821289 C156.423265,211.922578 156.640173,211.992701 156.693426,212.130351 C156.916828,212.713412 157.048012,213.338029 157.303886,213.905507 C157.433771,214.19509 157.758484,214.397668 157.996173,214.639204 C158.084495,214.397668 158.213081,214.163924 158.253346,213.915896 C158.298806,213.657479 158.258541,213.378284 158.263737,213.109479 C158.266334,213.019877 158.263737,212.886123 158.315691,212.853659 C158.510518,212.728995 158.80276,212.492654 158.922254,212.556284 C159.658702,212.954948 160.308127,213.360104 161.057564,212.495251 C161.293955,212.221251 163.611104,212.918588 163.739691,213.221156 C163.878668,213.543204 163.974783,213.905507 164.002058,214.25872 C164.252737,217.486986 164.493024,220.712654 164.720323,223.944815 C164.841116,225.651147 164.912553,227.360076 165.059323,229.065109 C165.082702,229.339109 165.359357,229.632588 165.594449,229.823479 C165.658093,229.874123 166.09061,229.626095 166.206208,229.427412 C167.25438,227.647062 168.368794,225.892683 169.270196,224.038313 C170.488518,221.526863 171.380828,218.886853 172.071817,216.170228 C172.512127,214.43273 173.035564,212.678351 173.796691,211.062919 C176.035909,206.297138 177.373725,201.276834 178.269932,196.121479 C178.763495,193.287981 179.154449,190.437602 179.573978,187.591119 C179.651909,187.058701 179.732438,186.505507 179.672691,185.978284 C179.23238,182.122806 179.45838,178.250446 179.29992,174.389773 C179.201208,171.952341 178.841426,169.573346 178.064714,167.235905 C176.987966,163.99855 175.944989,160.740417 175.128012,157.430341 C174.522748,154.979924 173.825265,152.569763 173.032966,150.181678 C172.157541,147.537773 171.23276,144.908152 170.326162,142.273337 C169.380599,139.525545 167.833668,137.089412 166.269851,134.676654 C164.707334,132.265194 163.059093,129.904379 161.348507,127.595507 C159.96653,125.734645 158.44038,123.981564 156.960989,122.193422 C156.160897,121.222085 155.304955,120.294901 154.506162,119.319668 C153.074828,117.578275 151.518806,115.974531 149.805622,114.494152 C145.707748,110.956825 141.229311,107.957109 136.709311,105.014531 C135.589702,104.283431 134.320725,103.779583 133.111495,103.187431 C132.546495,102.909536 131.932139,102.719943 131.393116,102.401792 C127.466691,100.087725 123.155806,98.8086257 118.782576,97.702237 C112.476656,96.107583 106.05384,95.4284266 99.5647825,95.276493 C98.0386331,95.2401328 96.5111848,95.0881991 94.9824377,95.0869005 C90.6312883,95.0804076 86.4243112,96.1062844 82.1809664,96.8997157 C78.8312308,97.5256304 75.4516216,97.9983129 72.0850009,98.5476114 C71.197886,98.6917536 70.3055756,98.8203129 69.4353457,99.0397726 C65.4128055,100.051365 61.5448285,101.500578 57.7469894,103.151071 C56.6819319,103.614664 55.5870009,104.006834 54.5154492,104.458739 C52.3489664,105.372938 50.3409434,106.511792 48.5900929,108.136313 C46.5470009,110.032237 44.372725,111.787915 42.2659894,113.61891 C41.6555296,114.14873 41.0606561,114.704521 40.5021503,115.288882 C37.2082653,118.73401 33.976725,122.236275 30.4152768,125.420389 C29.1462998,126.556645 27.9981158,127.83964 26.8603227,129.113545 C25.8420239,130.253697 24.9328285,131.480853 24.3327595,132.918379 C23.4339549,135.075318 22.5195641,137.22836 21.5493227,139.35673 C21.1090124,140.322872 20.529725,141.224085 19.9790124,142.136986 C19.9192653,142.240872 19.5542883,142.300607 19.5049319,142.240872 C19.3750469,142.083744 19.2282768,141.794161 19.2906216,141.646123 C19.9335526,140.161848 20.6232423,138.699649 21.2791618,137.223166 C21.3337135,137.102398 21.2453917,136.916701 21.2246101,136.763469 C21.0674492,136.837488 20.8635296,136.873848 20.7609204,136.994616 C20.1764377,137.677668 19.6283227,138.393185 19.0451388,139.078834 C18.2632308,139.998228 17.6839434,140.186521 16.748771,139.513858 C15.6980009,138.760683 14.7862078,138.567194 13.5224262,139.072341 C12.9223572,139.313877 11.9910814,138.841194 11.2624262,138.558104 C11.0559089,138.476294 10.8623802,137.864664 10.9545986,137.595858 C11.3312653,136.495962 11.7053342,135.367498 12.2859204,134.367592 C14.5861848,130.399138 17.035817,126.530673 19.72184,122.799858 C22.4637135,118.989829 25.5731618,115.523924 28.7995067,112.134635 C31.2309549,109.579033 33.8156676,107.214322 36.7211963,105.227498 C42.147794,101.510967 47.7679204,98.1073934 53.8699204,95.6050332 C58.2821158,93.7961138 62.748863,92.1157536 67.2376906,90.5133081 C69.3483227,89.7588342 71.5615641,89.2965404 73.7397365,88.7485404 C80.0365641,87.1642749 86.4074262,85.9643887 92.9146676,85.8410238 C99.7492193,85.7111659 106.553897,85.9786731 113.326104,87.2447868 C117.947415,88.1096399 122.444035,89.2952418 126.821162,90.935346 C130.943714,92.4819527 135.059771,94.0895925 138.893978,96.2763982 C147.459897,101.164247 155.215334,107.057194 161.777127,114.508436 C165.534702,118.776863 168.863656,123.330976 172.101691,127.991574 C175.78653,133.293668 178.290714,139.141166 180.619553,145.086057 C183.22115,151.725687 185.01876,158.60036 185.97861,165.665924 C186.485162,169.401934 186.750127,173.175602 187.030679,176.938882 C187.230702,179.620446 187.333311,182.3111 187.364484,185.001754 C187.377472,186.062692 187.016392,187.119735 186.942357,188.187166 C186.637127,192.510133 185.778587,196.744796 185.039541,200.996341 C184.856403,202.053384 184.500518,203.090948 184.121254,204.097346 C182.34053,208.807289 180.54292,213.509441 178.716737,218.2051 C176.987966,222.648834 175.225426,227.076986 173.460288,231.505138 C172.958932,232.755668 172.383541,233.97763 171.864001,235.22037 C171.809449,235.355422 171.85361,235.600853 171.949725,235.702142 C172.022461,235.778758 172.301714,235.781356 172.401725,235.699545 C173.82007,234.597052 175.229323,233.477678 176.630783,232.349213 C177.823127,231.390863 179.001185,230.414332 180.187035,229.445592 C180.179242,229.435204 180.171449,229.422218 180.163656,229.413128 L180.163656,229.413128 Z" id="Fill-1" style="mix-blend-mode: multiply;" transform="translate(101.803471, 168.074413) rotate(104.000000) translate(-101.803471, -168.074413) "></path>
        </g>
    </g>
</svg>